<svg width="54" height="54" viewBox="0 0 54 54" fill="none" xmlns="http://www.w3.org/2000/svg">
<path d="M24.6667 53.3333C24.1333 53.3333 23.6667 53.1333 23.2667 52.7333C22.8667 52.3333 22.6667 51.8667 22.6667 51.3333C22.6667 50.8 22.8667 50.3333 23.2667 49.9333C23.6667 49.5333 24.1333 49.3333 24.6667 49.3333V45.2C22.8 44.9778 21.0444 44.5333 19.4 43.8667C17.7556 43.2 16.2667 42.3111 14.9333 41.2L12.0667 44.1333C12.4667 44.5333 12.6667 45 12.6667 45.5333C12.6667 46.0667 12.4667 46.5333 12.0667 46.9333C11.6667 47.3333 11.2 47.5333 10.6667 47.5333C10.1333 47.5333 9.66667 47.3333 9.26667 46.9333L6.4 44.1333C6 43.7333 5.8 43.2556 5.8 42.7C5.8 42.1444 6 41.6667 6.4 41.2667C6.8 40.8667 7.26667 40.6778 7.8 40.7C8.33333 40.7222 8.8 40.9111 9.2 41.2667L12.1333 38.3333C11.0222 36.9556 10.1333 35.4667 9.46667 33.8667C8.8 32.2667 8.35556 30.5333 8.13333 28.6667H4C4 29.2 3.8 29.6667 3.4 30.0667C3 30.4667 2.53333 30.6667 2 30.6667C1.46667 30.6667 1 30.4667 0.6 30.0667C0.2 29.6667 0 29.2 0 28.6667V24.6667C0 24.1333 0.2 23.6667 0.6 23.2667C1 22.8667 1.46667 22.6667 2 22.6667C2.53333 22.6667 3 22.8667 3.4 23.2667C3.8 23.6667 4 24.1333 4 24.6667H8.13333C8.35556 22.8 8.81111 21.0667 9.5 19.4667C10.1889 17.8667 11.0667 16.3778 12.1333 15L9.2 12.0667C8.8 12.4222 8.33333 12.6111 7.8 12.6333C7.26667 12.6556 6.8 12.4667 6.4 12.0667C6 11.6667 5.8 11.1889 5.8 10.6333C5.8 10.0778 6 9.6 6.4 9.2L9.2 6.4C9.6 6 10.0778 5.8 10.6333 5.8C11.1889 5.8 11.6667 6 12.0667 6.4C12.4667 6.8 12.6667 7.27778 12.6667 7.83333C12.6667 8.38889 12.4667 8.86667 12.0667 9.26667L14.9333 12.1333C16.3111 11.0222 17.8 10.1333 19.4 9.46667C21 8.8 22.7333 8.35556 24.6 8.13333V4C24.0667 4 23.6111 3.8 23.2333 3.4C22.8556 3 22.6667 2.53333 22.6667 2C22.6667 1.46667 22.8667 1 23.2667 0.6C23.6667 0.2 24.1333 0 24.6667 0H28.6667C29.2 0 29.6667 0.2 30.0667 0.6C30.4667 1 30.6667 1.46667 30.6667 2C30.6667 2.53333 30.4667 3 30.0667 3.4C29.6667 3.8 29.2 4 28.6667 4V8.13333C30.5333 8.35556 32.2667 8.8 33.8667 9.46667C35.4667 10.1333 36.9556 11.0222 38.3333 12.1333L41.2667 9.2C40.8667 8.8 40.6667 8.33333 40.6667 7.8C40.6667 7.26667 40.8667 6.8 41.2667 6.4C41.6667 6 42.1444 5.8 42.7 5.8C43.2556 5.8 43.7333 6 44.1333 6.4L46.9333 9.26667C47.3333 9.66667 47.5333 10.1333 47.5333 10.6667C47.5333 11.2 47.3333 11.6667 46.9333 12.0667C46.5333 12.4667 46.0556 12.6667 45.5 12.6667C44.9444 12.6667 44.4667 12.4667 44.0667 12.0667L41.2 14.9333C42.3111 16.3111 43.2 17.8111 43.8667 19.4333C44.5333 21.0556 44.9778 22.8 45.2 24.6667H49.3333C49.3333 24.1333 49.5333 23.6667 49.9333 23.2667C50.3333 22.8667 50.8 22.6667 51.3333 22.6667C51.8667 22.6667 52.3333 22.8667 52.7333 23.2667C53.1333 23.6667 53.3333 24.1333 53.3333 24.6667V28.6667C53.3333 29.2 53.1333 29.6667 52.7333 30.0667C52.3333 30.4667 51.8667 30.6667 51.3333 30.6667C50.8 30.6667 50.3333 30.4667 49.9333 30.0667C49.5333 29.6667 49.3333 29.2 49.3333 28.6667H45.2C44.9778 30.5333 44.5333 32.2778 43.8667 33.9C43.2 35.5222 42.3111 37.0222 41.2 38.4L44.0667 41.2667C44.4667 40.8667 44.9444 40.6667 45.5 40.6667C46.0556 40.6667 46.5333 40.8667 46.9333 41.2667C47.3333 41.6667 47.5333 42.1444 47.5333 42.7C47.5333 43.2556 47.3333 43.7333 46.9333 44.1333L44.1333 46.9333C43.7333 47.3333 43.2556 47.5333 42.7 47.5333C42.1444 47.5333 41.6667 47.3333 41.2667 46.9333C40.8667 46.5333 40.6778 46.0667 40.7 45.5333C40.7222 45 40.9111 44.5333 41.2667 44.1333L38.3333 41.2C36.9556 42.3111 35.4667 43.2111 33.8667 43.9C32.2667 44.5889 30.5333 45.0444 28.6667 45.2667V49.3333C29.2 49.3333 29.6667 49.5333 30.0667 49.9333C30.4667 50.3333 30.6667 50.8 30.6667 51.3333C30.6667 51.8667 30.4667 52.3333 30.0667 52.7333C29.6667 53.1333 29.2 53.3333 28.6667 53.3333H24.6667ZM26.6667 40C30.3556 40 33.5 38.7 36.1 36.1C38.7 33.5 40 30.3556 40 26.6667C40 22.9778 38.7 19.8333 36.1 17.2333C33.5 14.6333 30.3556 13.3333 26.6667 13.3333C22.9778 13.3333 19.8333 14.6333 17.2333 17.2333C14.6333 19.8333 13.3333 22.9778 13.3333 26.6667C13.3333 30.3556 14.6333 33.5 17.2333 36.1C19.8333 38.7 22.9778 40 26.6667 40ZM22 37.3333C22.7556 37.3333 23.3889 37.0778 23.9 36.5667C24.4111 36.0556 24.6667 35.4222 24.6667 34.6667C24.6667 33.9111 24.4111 33.2778 23.9 32.7667C23.3889 32.2556 22.7556 32 22 32C21.2444 32 20.6111 32.2556 20.1 32.7667C19.5889 33.2778 19.3333 33.9111 19.3333 34.6667C19.3333 35.4222 19.5889 36.0556 20.1 36.5667C20.6111 37.0778 21.2444 37.3333 22 37.3333ZM31.3333 37.3333C32.0889 37.3333 32.7222 37.0778 33.2333 36.5667C33.7444 36.0556 34 35.4222 34 34.6667C34 33.9111 33.7444 33.2778 33.2333 32.7667C32.7222 32.2556 32.0889 32 31.3333 32C30.5778 32 29.9444 32.2556 29.4333 32.7667C28.9222 33.2778 28.6667 33.9111 28.6667 34.6667C28.6667 35.4222 28.9222 36.0556 29.4333 36.5667C29.9444 37.0778 30.5778 37.3333 31.3333 37.3333ZM17.3333 29.3333C18.0889 29.3333 18.7222 29.0778 19.2333 28.5667C19.7444 28.0556 20 27.4222 20 26.6667C20 25.9111 19.7444 25.2778 19.2333 24.7667C18.7222 24.2556 18.0889 24 17.3333 24C16.5778 24 15.9444 24.2556 15.4333 24.7667C14.9222 25.2778 14.6667 25.9111 14.6667 26.6667C14.6667 27.4222 14.9222 28.0556 15.4333 28.5667C15.9444 29.0778 16.5778 29.3333 17.3333 29.3333ZM26.6667 29.3333C27.4222 29.3333 28.0556 29.0778 28.5667 28.5667C29.0778 28.0556 29.3333 27.4222 29.3333 26.6667C29.3333 25.9111 29.0778 25.2778 28.5667 24.7667C28.0556 24.2556 27.4222 24 26.6667 24C25.9111 24 25.2778 24.2556 24.7667 24.7667C24.2556 25.2778 24 25.9111 24 26.6667C24 27.4222 24.2556 28.0556 24.7667 28.5667C25.2778 29.0778 25.9111 29.3333 26.6667 29.3333ZM36 29.3333C36.7556 29.3333 37.3889 29.0778 37.9 28.5667C38.4111 28.0556 38.6667 27.4222 38.6667 26.6667C38.6667 25.9111 38.4111 25.2778 37.9 24.7667C37.3889 24.2556 36.7556 24 36 24C35.2444 24 34.6111 24.2556 34.1 24.7667C33.5889 25.2778 33.3333 25.9111 33.3333 26.6667C33.3333 27.4222 33.5889 28.0556 34.1 28.5667C34.6111 29.0778 35.2444 29.3333 36 29.3333ZM22 21.3333C22.7556 21.3333 23.3889 21.0778 23.9 20.5667C24.4111 20.0556 24.6667 19.4222 24.6667 18.6667C24.6667 17.9111 24.4111 17.2778 23.9 16.7667C23.3889 16.2556 22.7556 16 22 16C21.2444 16 20.6111 16.2556 20.1 16.7667C19.5889 17.2778 19.3333 17.9111 19.3333 18.6667C19.3333 19.4222 19.5889 20.0556 20.1 20.5667C20.6111 21.0778 21.2444 21.3333 22 21.3333ZM31.3333 21.3333C32.0889 21.3333 32.7222 21.0778 33.2333 20.5667C33.7444 20.0556 34 19.4222 34 18.6667C34 17.9111 33.7444 17.2778 33.2333 16.7667C32.7222 16.2556 32.0889 16 31.3333 16C30.5778 16 29.9444 16.2556 29.4333 16.7667C28.9222 17.2778 28.6667 17.9111 28.6667 18.6667C28.6667 19.4222 28.9222 20.0556 29.4333 20.5667C29.9444 21.0778 30.5778 21.3333 31.3333 21.3333Z" fill="#006A63"/>
</svg>
