<svg width="30" height="24" viewBox="0 0 30 24" fill="none" xmlns="http://www.w3.org/2000/svg">
<path d="M21.3333 8H24V5.33333H21.3333V8ZM21.3333 13.3333H24V10.6667H21.3333V13.3333ZM21.3333 18.6667H24V16H21.3333V18.6667ZM21.3333 24V21.3333H26.6667V2.66667H14.6667V4.53333L12 2.6V0H29.3333V24H21.3333ZM0 24V10.6667L9.33333 4L18.6667 10.6667V24H10.6667V17.3333H8V24H0ZM2.66667 21.3333H5.33333V14.6667H13.3333V21.3333H16V12L9.33333 7.26667L2.66667 12V21.3333ZM13.3333 21.3333V14.6667H5.33333V21.3333V14.6667H9.33333H13.3333V21.3333Z" fill="#006A63"/>
</svg>
